<svg xmlns="http://www.w3.org/2000/svg" fill="none" viewBox="0 0 431 261">
  <path d="M79.623 144H1.73v-24h77.892m293.392 24h-99.528v-24h87.529" stroke="#426A5A" stroke-width="2" stroke-miterlimit="10"/>
  <path d="M350.512 136h-77.026v-8h60.929m-79.969 16H99.528v-24h154.918" stroke="#426A5A" stroke-width="2" stroke-miterlimit="10"/>
  <path d="M0 198c17.957 0 17.957 21 35.917 21s17.957-21 35.917-21 17.957 21 35.917 21 17.957-21 35.917-21c17.959 0 17.957 21 35.914 21s17.957-21 35.917-21c17.959 0 17.957 21 35.916 21 17.96 0 17.958-21 35.917-21 17.96 0 17.957 21 35.917 21s17.957-21 35.917-21 17.96 21 35.917 21 17.96-21 35.917-21" stroke="#3AB7A8" stroke-width="2" stroke-miterlimit="10"/>
  <path d="M0 217c17.957 0 17.957 22 35.917 22s17.957-22 35.917-22 17.957 22 35.917 22 17.957-22 35.917-22c17.959 0 17.957 22 35.914 22s17.957-22 35.917-22c17.959 0 17.957 22 35.916 22 17.96 0 17.958-22 35.917-22 17.96 0 17.957 22 35.917 22s17.957-22 35.917-22 17.96 22 35.917 22 17.96-22 35.917-22M0 239c17.957 0 17.957 21 35.917 21s17.957-21 35.917-21 17.957 21 35.917 21 17.957-21 35.917-21c17.959 0 17.957 21 35.914 21s17.957-21 35.917-21c17.959 0 17.957 21 35.916 21 17.96 0 17.958-21 35.917-21 17.96 0 17.957 21 35.917 21s17.957-21 35.917-21 17.96 21 35.917 21 17.96-21 35.917-21" stroke="#3AB7A8" stroke-width="2" stroke-miterlimit="10"/>
  <path d="M79.623 191.52V1h19.905v198m154.918-20V1m19.04 9.5v188.058m-12.982-16.16V18m6.924 9v164M99.528 1c0 49.746 34.839 90 77.892 90M79.623 1c0 49.746-34.839 90-77.892 90M254.446 1c0 49.746-34.839 90-77.892 90" stroke="#997B66" stroke-width="2" stroke-miterlimit="10"/>
  <path d="M0 178c17.957 0 17.957 22 35.917 22s17.957-22 35.917-22 17.957 22 35.917 22 17.957-22 35.917-22c17.959 0 17.957 22 35.914 22s17.957-22 35.917-22c17.959 0 17.957 22 35.916 22 17.96 0 17.958-22 35.917-22 17.96 0 17.957 22 35.917 22s17.957-22 35.917-22 17.96 22 35.917 22 17.96-22 35.917-22" stroke="#3AB7A8" stroke-width="2" stroke-miterlimit="10"/>
</svg>
