<svg xmlns="http://www.w3.org/2000/svg" fill="none" viewBox="0 0 463 272">
  <path d="M344.478 23.21a1 1 0 00-.768-1.188l-8.8-1.887a1 1 0 00-.42 1.955l7.823 1.678-1.678 7.822a1 1 0 101.955.42l1.888-8.8zM8.543 240.84l335.5-217-1.086-1.68-335.5 217 1.086 1.68z" fill="#3AB7A8"/>
  <path d="M344.819 102.749a1 1 0 00-.246-1.393l-7.374-5.16a1 1 0 00-1.147 1.64l6.555 4.586-4.586 6.555a1 1 0 001.639 1.146l5.159-7.374zM10.575 239.818c73.808-51.846 218.749-116.36 333.599-136.658l-.348-1.969c-115.15 20.351-260.363 84.982-334.4 136.991l1.149 1.636z" fill="#3AB7A8"/>
  <path d="M343.269 152.139a1 1 0 00-.13-1.408l-6.921-5.753a1 1 0 10-1.278 1.538l6.152 5.114-5.114 6.152a1 1 0 101.538 1.278l5.753-6.921zM9.542 241.84c54.816-35.381 154.14-72.852 333.05-89.344l-.184-1.992c-179.09 16.508-278.766 54.037-333.95 89.656l1.084 1.68z" fill="#3AB7A8"/>
  <path d="M393.707 178.207a.999.999 0 000-1.414l-6.364-6.364a.999.999 0 10-1.414 1.414l5.657 5.657-5.657 5.657a.999.999 0 101.414 1.414l6.364-6.364zM7 178.5h386v-2H7v2z" fill="#997B66"/>
  <path d="M8.207.293a1 1 0 00-1.414 0L.429 6.657A1 1 0 001.843 8.07L7.5 2.414l5.657 5.657a1 1 0 101.414-1.414L8.207.293zM7.5 242.5h-1v1h1v-1zm386.207.707a.999.999 0 000-1.414l-6.364-6.364a.999.999 0 10-1.414 1.414l5.657 5.657-5.657 5.657a.999.999 0 101.414 1.414l6.364-6.364zM6.5 1v241.5h2V1h-2zm1 242.5H393v-2H7.5v2z" fill="#426A5A"/>
  <path d="M20.278 38V26.364h4.148c.902 0 1.65.155 2.245.465.598.311 1.045.741 1.34 1.29.296.546.444 1.177.444 1.892 0 .713-.15 1.34-.45 1.881-.295.538-.742.957-1.34 1.256-.595.299-1.343.449-2.244.449h-3.143v-1.512h2.983c.569 0 1.03-.081 1.387-.244.36-.163.623-.4.79-.71.166-.31.25-.684.25-1.12 0-.439-.086-.82-.256-1.142a1.65 1.65 0 00-.79-.738c-.356-.175-.824-.262-1.403-.262h-2.205V38h-1.756zm5.745-5.25L28.898 38h-2l-2.819-5.25h1.944zm8.083 5.426c-.86 0-1.6-.184-2.221-.551a3.738 3.738 0 01-1.432-1.563c-.333-.674-.5-1.463-.5-2.369 0-.894.167-1.682.5-2.363a3.882 3.882 0 011.41-1.597c.605-.383 1.314-.574 2.124-.574.493 0 .97.082 1.432.244.462.163.877.419 1.244.768.368.348.658.8.87 1.357.212.553.318 1.226.318 2.017v.603h-6.938v-1.273h5.273c0-.447-.09-.843-.273-1.188a2.063 2.063 0 00-.767-.823c-.325-.201-.708-.302-1.147-.302-.478 0-.894.118-1.25.353a2.364 2.364 0 00-.819.909 2.626 2.626 0 00-.284 1.21v.994c0 .584.103 1.08.307 1.489.208.41.498.722.87.938.37.212.804.318 1.3.318.323 0 .616-.046.881-.137.265-.094.495-.235.688-.42a1.84 1.84 0 00.443-.688l1.608.29c-.129.474-.36.888-.693 1.245a3.36 3.36 0 01-1.245.823c-.496.194-1.062.29-1.699.29zM41.612 38l-2.568-8.727H40.8l1.71 6.409h.085l1.716-6.41h1.756l1.704 6.381h.085l1.7-6.38h1.755L48.75 38h-1.733l-1.773-6.301h-.13L43.34 38h-1.728zm13.851.193a3.564 3.564 0 01-1.5-.307 2.527 2.527 0 01-1.062-.903c-.258-.394-.387-.877-.387-1.449 0-.492.095-.898.284-1.216.19-.318.445-.57.767-.755a4.008 4.008 0 011.08-.421 10.62 10.62 0 011.216-.216l1.273-.148c.325-.041.562-.108.71-.198.148-.091.221-.24.221-.444v-.04c0-.496-.14-.88-.42-1.153-.277-.273-.69-.409-1.239-.409-.572 0-1.023.127-1.352.38-.326.25-.551.53-.676.836l-1.597-.364c.19-.53.466-.958.83-1.284.367-.33.79-.568 1.267-.716a4.959 4.959 0 011.505-.227c.349 0 .718.042 1.108.125.394.08.762.227 1.103.443.344.216.627.525.846.926.22.398.33.915.33 1.552V38h-1.66v-1.193h-.067c-.11.22-.275.435-.495.648-.22.212-.502.388-.846.528-.345.14-.758.21-1.239.21zm.37-1.363c.47 0 .87-.093 1.204-.279a1.95 1.95 0 00.767-.727c.178-.303.267-.627.267-.972v-1.125c-.06.06-.178.118-.352.17a5.3 5.3 0 01-.586.131c-.22.035-.433.067-.642.097-.208.026-.382.05-.522.068-.33.042-.63.112-.904.21-.269.099-.484.24-.647.427-.16.181-.239.424-.239.727 0 .42.155.738.466.954.31.212.706.319 1.187.319zm6.2 1.17v-8.727h1.642v1.386h.09c.16-.47.44-.839.841-1.108a2.408 2.408 0 011.376-.409 7.236 7.236 0 01.721.04v1.625a3.05 3.05 0 00-.364-.063 3.473 3.473 0 00-.522-.04c-.402 0-.76.086-1.074.256a1.9 1.9 0 00-1.011 1.71V38h-1.7zm9.095.17c-.705 0-1.334-.18-1.886-.54-.55-.363-.982-.88-1.296-1.55-.31-.675-.466-1.483-.466-2.427 0-.943.157-1.75.472-2.42.318-.67.754-1.184 1.306-1.54a3.398 3.398 0 011.881-.534c.542 0 .978.091 1.307.273.333.178.59.386.773.625.185.239.33.449.432.63h.102v-4.323h1.699V38h-1.66v-1.358h-.141a4.49 4.49 0 01-.444.636c-.189.239-.45.447-.784.625-.333.178-.765.267-1.295.267zm.375-1.448c.489 0 .901-.13 1.239-.387.34-.261.598-.623.772-1.085.178-.462.267-1 .267-1.614 0-.606-.087-1.136-.261-1.59-.174-.455-.43-.81-.767-1.063-.337-.254-.754-.38-1.25-.38-.511 0-.938.132-1.279.397-.34.265-.598.627-.772 1.085-.17.459-.256.976-.256 1.551 0 .584.087 1.108.261 1.574.175.466.432.835.773 1.108.345.27.77.404 1.273.404zm334.202 126.153v-1.511h9.005v1.511h-3.63V173h-1.75v-10.125h-3.625zm13.269 10.301c-.818 0-1.532-.187-2.142-.562a3.799 3.799 0 01-1.42-1.574c-.337-.674-.506-1.462-.506-2.364 0-.905.169-1.697.506-2.375a3.788 3.788 0 011.42-1.579c.61-.375 1.324-.563 2.142-.563.819 0 1.533.188 2.142.563.61.375 1.084.901 1.421 1.579.337.678.506 1.47.506 2.375 0 .902-.169 1.69-.506 2.364a3.794 3.794 0 01-1.421 1.574c-.609.375-1.323.562-2.142.562zm.006-1.426c.53 0 .97-.14 1.318-.42.349-.281.606-.654.773-1.12.17-.466.256-.979.256-1.54 0-.556-.086-1.068-.256-1.534a2.5 2.5 0 00-.773-1.13c-.348-.284-.788-.426-1.318-.426-.534 0-.977.142-1.329.426a2.541 2.541 0 00-.779 1.13 4.52 4.52 0 00-.25 1.534c0 .561.083 1.074.25 1.54.171.466.43.839.779 1.12.352.28.795.42 1.329.42zm9.226 1.42c-.705 0-1.333-.179-1.886-.539-.55-.364-.981-.881-1.296-1.551-.31-.675-.466-1.483-.466-2.427 0-.943.157-1.75.472-2.42.318-.671.754-1.184 1.307-1.54a3.398 3.398 0 011.88-.534c.542 0 .978.091 1.307.273.333.178.591.386.773.625.185.238.329.449.432.631h.102v-4.324h1.699V173h-1.659v-1.358h-.142c-.103.186-.25.398-.443.636a2.46 2.46 0 01-.785.625c-.333.178-.765.267-1.295.267zm.375-1.448c.489 0 .901-.129 1.239-.387.341-.261.598-.623.772-1.085.178-.462.267-1 .267-1.614 0-.606-.087-1.136-.261-1.591-.174-.454-.43-.808-.767-1.062s-.754-.381-1.25-.381c-.511 0-.938.133-1.278.398-.341.265-.599.627-.773 1.085a4.418 4.418 0 00-.256 1.551c0 .584.087 1.108.262 1.574.174.466.431.835.772 1.108.345.269.769.404 1.273.404zm8.913 1.471a3.557 3.557 0 01-1.5-.307 2.52 2.52 0 01-1.062-.903c-.258-.394-.387-.877-.387-1.449 0-.492.095-.898.285-1.216.189-.318.445-.57.767-.756a4.029 4.029 0 011.079-.42 10.62 10.62 0 011.216-.216l1.273-.148c.326-.041.562-.108.71-.198.148-.091.222-.239.222-.444v-.039c0-.497-.141-.881-.421-1.154-.276-.273-.689-.409-1.238-.409-.572 0-1.023.127-1.353.381-.326.25-.551.528-.676.835l-1.597-.364c.19-.53.466-.958.83-1.284.367-.329.79-.568 1.267-.716a4.96 4.96 0 011.506-.227c.348 0 .718.042 1.108.125.394.08.761.227 1.102.443.345.216.627.525.847.926.219.398.329.915.329 1.552V173h-1.659v-1.193h-.068c-.11.22-.275.435-.494.648-.22.212-.502.388-.847.528s-.758.21-1.239.21zm.37-1.363c.469 0 .871-.093 1.204-.279.337-.185.593-.428.767-.727.178-.303.267-.627.267-.972v-1.125c-.06.061-.178.118-.352.171-.17.049-.366.093-.585.13-.22.034-.434.067-.642.097l-.523.068a4.24 4.24 0 00-.903.21 1.555 1.555 0 00-.648.427c-.159.181-.239.424-.239.727 0 .42.156.738.466.954.311.212.707.319 1.188.319zm6.961 4.443a3.51 3.51 0 01-.693-.063 2.158 2.158 0 01-.466-.125l.409-1.392c.311.084.587.12.83.108a.99.99 0 00.642-.273c.189-.17.356-.448.5-.835l.21-.579-3.193-8.841h1.818l2.21 6.772h.091l2.21-6.772h1.824l-3.596 9.892a3.945 3.945 0 01-.637 1.153 2.466 2.466 0 01-.92.716c-.356.159-.769.239-1.239.239zm9.996-14.909v1.091c0 .322-.061.661-.182 1.017a4.286 4.286 0 01-.5 1.017 3.695 3.695 0 01-.761.841l-.841-.603a6.41 6.41 0 00.579-1.039c.167-.368.25-.773.25-1.216v-1.108h1.455zm7.08 5.039l-1.54.273a1.838 1.838 0 00-.307-.562 1.52 1.52 0 00-.557-.438c-.235-.114-.528-.17-.881-.17-.481 0-.882.108-1.204.324-.322.212-.483.486-.483.823 0 .292.108.527.324.705.216.178.564.324 1.045.437l1.387.319c.803.185 1.401.471 1.795.858.394.386.591.888.591 1.505 0 .523-.151.989-.455 1.398-.299.405-.717.723-1.255.955-.534.231-1.154.346-1.858.346-.977 0-1.775-.208-2.392-.625-.618-.42-.996-1.017-1.137-1.79l1.642-.25c.103.428.313.752.631.972.318.216.733.324 1.244.324.557 0 1.002-.116 1.336-.347.333-.235.5-.521.5-.858a.893.893 0 00-.307-.687c-.201-.186-.51-.326-.926-.421l-1.478-.324c-.814-.185-1.416-.481-1.806-.886-.387-.405-.58-.918-.58-1.54a2.2 2.2 0 01.432-1.352c.288-.386.686-.687 1.193-.903.508-.22 1.089-.33 1.744-.33.944 0 1.686.205 2.228.614.541.405.899.949 1.074 1.63zm-47.748 20.637a3.496 3.496 0 00-.443-.926 2.821 2.821 0 00-1.522-1.154 3.51 3.51 0 00-1.063-.153 3.22 3.22 0 00-1.773.505c-.526.338-.943.832-1.25 1.483-.303.648-.454 1.442-.454 2.381 0 .943.153 1.741.46 2.392.307.652.727 1.146 1.261 1.483.534.337 1.142.506 1.824.506.633 0 1.184-.129 1.654-.387a2.688 2.688 0 001.096-1.09c.262-.474.392-1.031.392-1.671l.455.085h-3.33v-1.449h4.574v1.324c0 .978-.208 1.826-.625 2.546a4.255 4.255 0 01-1.716 1.659c-.727.39-1.56.585-2.5.585-1.053 0-1.977-.242-2.773-.727-.791-.485-1.409-1.173-1.852-2.063-.443-.894-.665-1.954-.665-3.181 0-.929.129-1.762.387-2.5.257-.739.619-1.366 1.085-1.881a4.748 4.748 0 011.653-1.188 5.19 5.19 0 012.086-.414c.628 0 1.214.092 1.755.278a4.735 4.735 0 011.455.79c.428.341.782.746 1.062 1.216.281.466.47.983.569 1.551h-1.802zm3.973 7.96v-8.727h1.642v1.386h.091c.159-.47.44-.839.841-1.108a2.407 2.407 0 011.375-.409c.106 0 .231.004.375.011.148.008.264.017.347.029v1.625a3.074 3.074 0 00-.364-.063 3.528 3.528 0 00-.522-.039c-.402 0-.76.085-1.074.255a1.904 1.904 0 00-1.012 1.71V195h-1.699zm8.603.193a3.557 3.557 0 01-1.5-.307 2.528 2.528 0 01-1.063-.903c-.257-.394-.386-.877-.386-1.449 0-.492.095-.898.284-1.216.189-.318.445-.57.767-.756a4.035 4.035 0 011.08-.42c.397-.095.803-.167 1.215-.216l1.273-.148c.326-.041.563-.108.71-.198.148-.091.222-.239.222-.444v-.039c0-.497-.14-.881-.42-1.154-.277-.273-.69-.409-1.239-.409-.572 0-1.023.127-1.352.381-.326.25-.552.528-.677.835l-1.596-.364c.189-.53.466-.958.829-1.284.368-.329.79-.568 1.267-.716a4.97 4.97 0 011.506-.227c.349 0 .718.042 1.108.125.394.08.761.227 1.102.443.345.216.627.525.847.926.22.398.33.915.33 1.552V195h-1.66v-1.193h-.068c-.11.22-.274.435-.494.648-.22.212-.502.388-.847.528-.344.14-.757.21-1.238.21zm.369-1.363c.47 0 .871-.093 1.205-.279.337-.185.592-.428.767-.727.178-.303.267-.627.267-.972v-1.125c-.061.061-.178.118-.353.171-.17.049-.365.093-.585.13-.22.034-.434.067-.642.097l-.523.068a4.27 4.27 0 00-.903.21 1.555 1.555 0 00-.648.427c-.159.181-.238.424-.238.727 0 .42.155.738.466.954.31.212.706.319 1.187.319zm7.899-4.012V195h-1.699v-8.727h1.631v1.42h.108c.201-.462.515-.833.943-1.113.432-.281.975-.421 1.631-.421.594 0 1.115.125 1.562.375.447.246.794.614 1.04 1.102.246.489.369 1.093.369 1.813V195h-1.698v-5.347c0-.632-.165-1.126-.495-1.483-.329-.359-.782-.539-1.358-.539-.394 0-.744.085-1.051.255a1.844 1.844 0 00-.721.75c-.175.326-.262.72-.262 1.182zm11.938-3.545v1.363h-4.767v-1.363h4.767zm-3.489-2.091h1.699v8.256c0 .329.049.577.148.744a.77.77 0 00.38.335c.159.057.332.085.517.085.137 0 .256-.009.358-.028.103-.019.182-.034.239-.046l.307 1.404a2.768 2.768 0 01-.421.113 3.314 3.314 0 01-.682.069 3 3 0 01-1.25-.239 2.146 2.146 0 01-.937-.773c-.239-.348-.358-.786-.358-1.312v-8.608zm11.767 4.221l-1.54.273a1.796 1.796 0 00-.307-.562 1.516 1.516 0 00-.556-.438c-.235-.114-.529-.17-.881-.17-.481 0-.883.108-1.205.324-.322.212-.483.486-.483.823 0 .292.108.527.324.705.216.178.565.324 1.046.437l1.386.319c.803.185 1.402.471 1.796.858.394.386.591.888.591 1.505 0 .523-.152.989-.455 1.398-.299.405-.718.723-1.256.955-.534.231-1.153.346-1.858.346-.977 0-1.774-.208-2.392-.625-.617-.42-.996-1.017-1.136-1.79l1.642-.25c.102.428.312.752.631.972.318.216.733.324 1.244.324.557 0 1.002-.116 1.335-.347.334-.235.5-.521.5-.858a.89.89 0 00-.307-.687c-.2-.186-.509-.326-.926-.421l-1.477-.324c-.814-.185-1.417-.481-1.807-.886-.386-.405-.579-.918-.579-1.54 0-.515.144-.966.431-1.352.288-.386.686-.687 1.194-.903.507-.22 1.089-.33 1.744-.33.943 0 1.686.205 2.227.614.542.405.9.949 1.074 1.63zm-137.179 66.961V267h-1.756v-11.636h1.756zM320.455 267v-8.727h1.63v1.42h.108c.182-.481.479-.856.892-1.125.413-.273.907-.409 1.483-.409.584 0 1.072.136 1.466.409.398.273.691.648.881 1.125h.091c.208-.466.539-.837.994-1.113.455-.281.996-.421 1.625-.421.792 0 1.437.248 1.937.744.504.497.756 1.245.756 2.245V267h-1.699v-5.693c0-.591-.161-1.019-.483-1.284a1.757 1.757 0 00-1.153-.398c-.553 0-.983.17-1.29.511-.307.337-.46.771-.46 1.302V267h-1.693v-5.801c0-.474-.148-.854-.443-1.142-.296-.288-.68-.432-1.154-.432-.322 0-.619.085-.892.256a1.86 1.86 0 00-.653.699 2.136 2.136 0 00-.245 1.039V267h-1.698zm14.14 3.273v-12h1.659v1.415h.142c.099-.182.241-.393.426-.631.186-.239.444-.447.773-.625.33-.182.765-.273 1.307-.273.705 0 1.333.178 1.886.534.553.356.987.869 1.301 1.54.319.67.478 1.477.478 2.42 0 .944-.157 1.752-.472 2.427-.314.67-.746 1.187-1.295 1.551-.55.36-1.176.539-1.881.539-.53 0-.964-.089-1.301-.267a2.456 2.456 0 01-.784-.625 4.685 4.685 0 01-.438-.636h-.102v4.631h-1.699zm1.665-7.637c0 .614.089 1.152.267 1.614.178.462.436.824.773 1.085.337.258.75.387 1.238.387.508 0 .932-.135 1.273-.404.341-.273.599-.642.773-1.108.178-.466.267-.99.267-1.574 0-.575-.087-1.092-.262-1.551-.17-.458-.428-.82-.772-1.085-.341-.265-.767-.398-1.279-.398-.492 0-.909.127-1.25.381-.337.254-.592.608-.767 1.062-.174.455-.261.985-.261 1.591zm10.75 4.557a3.557 3.557 0 01-1.5-.307 2.528 2.528 0 01-1.063-.903c-.257-.394-.386-.877-.386-1.449 0-.492.095-.898.284-1.216.19-.318.445-.57.767-.756a4.035 4.035 0 011.08-.42c.397-.095.803-.167 1.216-.216l1.272-.148c.326-.041.563-.108.711-.198.147-.091.221-.239.221-.444v-.039c0-.497-.14-.881-.42-1.154-.277-.273-.69-.409-1.239-.409-.572 0-1.023.127-1.352.381-.326.25-.551.528-.676.835l-1.597-.364c.19-.53.466-.958.83-1.284a3.367 3.367 0 011.267-.716 4.959 4.959 0 011.505-.227c.349 0 .718.042 1.108.125.394.08.762.227 1.103.443.344.216.627.525.846.926.22.398.33.915.33 1.552V267h-1.659v-1.193h-.069c-.109.22-.274.435-.494.648-.22.212-.502.388-.846.528-.345.14-.758.21-1.239.21zm.369-1.363c.47 0 .871-.093 1.205-.279.337-.185.593-.428.767-.727.178-.303.267-.627.267-.972v-1.125c-.061.061-.178.118-.352.171a5.366 5.366 0 01-.586.13c-.219.034-.433.067-.642.097l-.522.068c-.33.042-.631.112-.904.21a1.555 1.555 0 00-.648.427c-.159.181-.238.424-.238.727 0 .42.155.738.466.954.31.212.706.319 1.187.319zm9.877 1.346c-.845 0-1.572-.191-2.182-.574a3.798 3.798 0 01-1.398-1.596c-.326-.678-.488-1.455-.488-2.33 0-.886.166-1.668.5-2.346a3.83 3.83 0 011.409-1.597c.606-.383 1.32-.574 2.142-.574.663 0 1.253.123 1.772.369.519.243.938.584 1.256 1.023.322.44.513.953.574 1.54h-1.653a1.985 1.985 0 00-.626-1.057c-.321-.295-.753-.443-1.295-.443a2.11 2.11 0 00-1.244.375c-.353.246-.627.598-.824 1.057-.197.454-.296.992-.296 1.613 0 .637.097 1.186.29 1.648.193.462.466.82.818 1.074.356.254.775.381 1.256.381.322 0 .614-.059.875-.177a1.78 1.78 0 00.665-.517 1.94 1.94 0 00.381-.806h1.653a3.214 3.214 0 01-.551 1.511 3.168 3.168 0 01-1.233 1.045c-.512.254-1.112.381-1.801.381zm9.476-8.903v1.363h-4.768v-1.363h4.768zm-3.489-2.091h1.699v8.256c0 .329.049.577.147.744a.776.776 0 00.381.335c.159.057.332.085.517.085.137 0 .256-.009.358-.028.102-.019.182-.034.239-.046l.307 1.404a2.768 2.768 0 01-.421.113 3.314 3.314 0 01-.682.069 2.997 2.997 0 01-1.25-.239 2.14 2.14 0 01-.937-.773c-.239-.348-.358-.786-.358-1.312v-8.608z" fill="#304849"/>
</svg>
