<svg xmlns="http://www.w3.org/2000/svg" fill="none" viewBox="0 0 432 221">
  <path d="M80.743 8.474a1 1 0 00.337 1.373l7.697 4.666a1 1 0 101.036-1.71l-6.841-4.148 4.147-6.84A1 1 0 0085.41.776l-4.666 7.697zM179.23 34.44C152.355 8.52 115.208-.278 81.36 8.02l.477 1.943c33.205-8.141 69.642.491 96.004 25.917l1.389-1.44zM5.064 81.352a1 1 0 001.358.394l7.887-4.335a1 1 0 00-.963-1.753l-7.01 3.854-3.855-7.01a1 1 0 10-1.752.963l4.335 7.887zM76.591 8.98c-16.467 4.785-31.994 13.658-44.974 26.637l1.415 1.415C45.767 24.297 60.997 15.594 77.149 10.9l-.558-1.92zM31.617 35.617C18.637 48.597 9.765 64.124 4.98 80.591l1.92.558c4.694-16.152 13.397-31.382 26.132-44.117l-1.415-1.414zm-.475 147.918a1 1 0 001.018-.982l.162-8.998a1 1 0 10-2-.036l-.144 7.998-7.999-.144a1 1 0 10-.036 1.999l8.999.163zM4.02 85.36c-8.299 33.848.5 70.995 26.42 97.87l1.439-1.389C6.454 155.479-2.178 119.042 5.963 85.837l-1.942-.477zm203.762 53.345a1 1 0 00-1.359-.39l-7.874 4.358a1 1 0 00.968 1.75l6.999-3.874 3.875 6.999a1 1 0 001.75-.969l-4.359-7.874zm-71.522 73.161c16.468-4.838 31.995-13.81 44.974-26.933l-1.422-1.406c-12.736 12.877-27.965 21.676-44.116 26.421l.564 1.918zm44.974-26.933a106.194 106.194 0 0026.634-45.467l-1.922-.553a104.193 104.193 0 01-26.134 44.614l1.422 1.406zm-49.13 27.441a1 1 0 00-.336-1.374l-7.697-4.666a1 1 0 00-1.036 1.711l6.841 4.147-4.148 6.841a1 1 0 001.71 1.037l4.666-7.696zm-98.486-25.967c26.864 25.92 64.011 34.719 97.869 26.42l-.476-1.943c-33.216 8.142-69.653-.491-96.004-25.916l-1.39 1.439zM393.706 36.16a1 1 0 00.982-1.018l-.163-8.999a1 1 0 00-2 .036l.145 8-7.999.144a1 1 0 00.036 2l8.999-.163zm.676-1.72C367.508 8.52 330.36-.278 296.513 8.02l.476 1.943c33.206-8.141 69.642.491 96.005 25.917l1.388-1.44zM293.685 10.425a1 1 0 00-.39-1.36l-7.874-4.358a1 1 0 00-.969 1.75l6.999 3.874-3.874 7a1 1 0 101.75.968l4.358-7.874zm-1.151-1.446a106.195 106.195 0 00-45.467 26.635l1.406 1.422a104.199 104.199 0 0144.614-26.134l-.553-1.923zm-45.467 26.635c-13.123 12.979-22.095 28.506-26.933 44.974l1.918.564c4.745-16.151 13.544-31.38 26.421-44.116l-1.406-1.422zm103.185 174.814a1 1 0 00.399 1.357l7.9 4.312a1 1 0 00.958-1.756l-7.022-3.833 3.833-7.022a1 1 0 00-1.756-.958l-4.312 7.9zm1.16 1.438c16.468-4.838 31.995-13.81 44.974-26.933l-1.422-1.406c-12.735 12.877-27.965 21.676-44.116 26.421l.564 1.918zm44.974-26.933a106.196 106.196 0 0026.635-45.467l-1.923-.553a104.193 104.193 0 01-26.134 44.614l1.422 1.406zm25.763-49.166a.998.998 0 001.373.337l7.698-4.663a1 1 0 00-1.037-1.711l-6.842 4.146-4.145-6.843a1 1 0 00-1.711 1.037l4.664 7.697zm1.826-.28c8.309-33.847-.5-70.995-26.415-97.869l-1.44 1.388c25.422 26.363 34.063 62.8 25.913 96.005l1.942.476zm-174.528 49.201a1 1 0 00-.982 1.018l.161 8.998a1 1 0 102-.036l-.144-7.998 7.999-.143a1 1 0 00-.036-2l-8.998.161zm-.677 1.719c26.864 25.92 64.012 34.719 97.87 26.42l-.477-1.943c-33.216 8.142-69.652-.491-96.004-25.916l-1.389 1.439z" fill="#426A5A"/>
  <circle cx="105" cy="110" r="47" stroke="#997B66" stroke-width="2"/>
  <circle cx="322" cy="110" r="47" stroke="#3AB7A8" stroke-width="2"/>
</svg>
